<svg width="218" height="56" viewBox="0 0 218 56" fill="none" xmlns="http://www.w3.org/2000/svg">
<g clip-path="url(#clip0_502_4870)">
<path d="M210.332 3.6332C210.332 3.41024 210.513 3.22949 210.736 3.22949H212.351C212.574 3.22949 212.754 3.41024 212.754 3.6332C212.754 3.85616 212.574 4.0369 212.351 4.0369H211.947V6.05542C211.947 6.27838 211.766 6.45912 211.543 6.45912C211.32 6.45912 211.139 6.27838 211.139 6.05542V4.0369H210.736C210.513 4.0369 210.332 3.85616 210.332 3.6332Z" fill="white"/>
<path d="M213.87 3.37477C213.761 3.2442 213.582 3.19576 213.423 3.25363C213.263 3.31148 213.156 3.46325 213.156 3.63322V6.05544C213.156 6.2784 213.337 6.45914 213.56 6.45914C213.783 6.45914 213.964 6.2784 213.964 6.05544V4.74825L214.259 5.10278C214.336 5.19482 214.449 5.24803 214.569 5.24803C214.689 5.24803 214.803 5.19482 214.879 5.10278L215.175 4.74829V6.05544C215.175 6.2784 215.356 6.45914 215.578 6.45914C215.801 6.45914 215.982 6.2784 215.982 6.05544V3.63322C215.982 3.46325 215.876 3.31148 215.716 3.25363C215.556 3.19576 215.377 3.2442 215.268 3.37477L214.569 4.21374L213.87 3.37477Z" fill="white"/>
<path fill-rule="evenodd" clip-rule="evenodd" d="M217.596 4.84406C217.596 7.2966 215.608 9.2848 213.156 9.2848C210.703 9.2848 208.715 7.2966 208.715 4.84406C208.715 2.39151 210.703 0.40332 213.156 0.40332C215.608 0.40332 217.596 2.39151 217.596 4.84406ZM209.525 4.84406C209.525 6.84918 211.15 8.47465 213.156 8.47465C215.161 8.47465 216.786 6.84918 216.786 4.84406C216.786 2.83895 215.161 1.21348 213.156 1.21348C211.15 1.21348 209.525 2.83895 209.525 4.84406Z" fill="white"/>
</g>
<path d="M194.26 6.13574H116.155C103.043 6.13574 92.4141 16.7651 92.4141 29.877V30.678C92.4141 43.79 103.043 54.4193 116.155 54.4193H194.26C207.372 54.4193 218.001 43.79 218.001 30.678V29.877C218.001 16.7651 207.372 6.13574 194.26 6.13574Z" fill="url(#paint0_linear_502_4870)"/>
<path d="M0.00497512 16.1465C0.00497512 14.9525 0.587065 14.3555 1.75622 14.3555H15.6269C16.8209 14.3555 17.4179 14.9475 17.4179 16.1316V17.3157C17.4179 18.4699 16.8209 19.047 15.6269 19.047H5.46766V27.7087H13.7463C14.9403 27.7087 15.5373 28.2858 15.5373 29.44V30.6241C15.5373 31.8082 14.9403 32.4002 13.7463 32.4002H5.46766V42.853C5.46766 44.047 4.88557 44.644 3.71642 44.644H1.75124C0.587065 44.644 0 44.047 0 42.853V16.1465H0.00497512Z" fill="white"/>
<path d="M20.7031 16.1465C20.7031 14.9525 21.2852 14.3555 22.4544 14.3555H24.33C25.4942 14.3555 26.0812 14.9525 26.0812 16.1465V37.44C26.0812 37.9823 26.131 38.4152 26.2305 38.7435C26.33 39.0719 26.4643 39.3256 26.6335 39.5097C26.8026 39.6938 26.9867 39.8231 27.1907 39.8928C27.3897 39.9624 27.5887 40.0122 27.7877 40.042C28.1857 40.1017 28.5041 40.251 28.7479 40.4898C28.9917 40.7336 29.1111 41.0968 29.1111 41.5793V43.0321C29.1111 43.5992 28.9768 44.047 28.7081 44.3754C28.4394 44.7037 27.9768 44.8679 27.32 44.8679C26.5787 44.8679 25.8275 44.7982 25.0564 44.654C24.2852 44.5097 23.5787 44.2012 22.922 43.7137C22.2653 43.2311 21.733 42.5246 21.32 41.5992C20.9071 40.6739 20.7031 39.4301 20.7031 37.8679V16.1465Z" fill="white"/>
<path d="M31.1602 33.7681C31.1602 32.1164 31.4736 30.589 32.1005 29.1811C32.7273 27.7731 33.5781 26.5691 34.6626 25.5741C35.7422 24.5791 37.0109 23.798 38.4587 23.2258C39.9114 22.6587 41.4587 22.3701 43.1104 22.3701C44.7621 22.3701 46.3094 22.6537 47.7621 23.2258C49.2149 23.793 50.4835 24.5791 51.583 25.5741C52.6776 26.5691 53.5383 27.7731 54.1651 29.1811C54.792 30.589 55.1054 32.1164 55.1054 33.7681C55.1054 35.4199 54.792 36.9821 54.1651 38.3751C53.5383 39.7681 52.6776 40.9721 51.583 41.9821C50.4885 42.992 49.2149 43.7731 47.7621 44.3303C46.3094 44.8825 44.7621 45.1612 43.1104 45.1612C41.4587 45.1612 39.9114 44.8825 38.4587 44.3303C37.0059 43.7731 35.7422 42.992 34.6626 41.9821C33.583 40.9721 32.7273 39.7681 32.1005 38.3751C31.4736 36.9821 31.1602 35.4447 31.1602 33.7681ZM36.6626 33.7681C36.6626 34.793 36.8318 35.7184 37.1751 36.5442C37.5184 37.3701 37.9811 38.0816 38.5631 38.6786C39.1452 39.2756 39.8268 39.7383 40.6129 40.0666C41.394 40.395 42.2298 40.5592 43.1104 40.5592C43.991 40.5592 44.8218 40.395 45.6079 40.0666C46.389 39.7383 47.0806 39.2756 47.6776 38.6786C48.2746 38.0816 48.7422 37.3701 49.0855 36.5442C49.4288 35.7184 49.598 34.793 49.598 33.7681C49.598 32.7433 49.4288 31.8527 49.0855 31.0169C48.7422 30.1761 48.2746 29.4597 47.6776 28.8627C47.0806 28.2656 46.389 27.803 45.6079 27.4746C44.8268 27.1462 43.991 26.9821 43.1104 26.9821C42.2298 26.9821 41.394 27.1462 40.6129 27.4746C39.8318 27.803 39.1452 28.2656 38.5631 28.8627C37.9811 29.4597 37.5184 30.1811 37.1751 31.0169C36.8318 31.8577 36.6626 32.7731 36.6626 33.7681Z" fill="white"/>
<path d="M57.1879 24.8929C57.0187 24.2959 57.0685 23.8133 57.3371 23.4401C57.6058 23.072 58.0535 22.8879 58.6804 22.8879H60.7302C61.8098 22.8879 62.4516 23.4153 62.6506 24.465L66.1481 37.1814C66.2028 37.4949 66.2526 37.7784 66.2973 38.0371C66.3421 38.2909 66.3919 38.5347 66.4466 38.7635C66.5013 39.0172 66.5461 39.261 66.5759 39.4899H66.6605C66.6904 39.261 66.7302 39.0222 66.7899 38.7635C66.8446 38.5347 66.8943 38.2959 66.9391 38.0371C66.9839 37.7784 67.0436 37.4949 67.1331 37.1814L70.8048 24.465C71.0038 23.4401 71.6555 22.9277 72.77 22.9277H74.3919C75.4466 22.9277 76.0983 23.4401 76.357 24.465L79.9839 37.1814C80.0685 37.4949 80.1331 37.7784 80.1779 38.0371C80.2177 38.2909 80.2675 38.5347 80.3272 38.7635C80.3819 39.0172 80.4267 39.261 80.4565 39.4899H80.5411C80.571 39.261 80.6108 39.0222 80.6705 38.7635C80.7252 38.5347 80.7749 38.2959 80.8197 38.0371C80.8645 37.7784 80.9242 37.4949 81.0137 37.1814L87.2327 15.9277C87.4864 14.8779 88.1431 14.3506 89.1978 14.3506H91.163C91.8147 14.3506 92.2725 14.5347 92.5312 14.9028C92.7849 15.271 92.8297 15.7585 92.6605 16.3556L84.3073 43.1565C84.0237 44.1516 83.3521 44.6491 82.3023 44.6491H79.4416C78.362 44.6491 77.6904 44.1366 77.4366 43.1118L74.153 32.2312C74.0685 31.9476 73.9988 31.664 73.9391 31.3755C73.8794 31.0919 73.8247 30.8332 73.77 30.6093C73.7103 30.3556 73.6705 30.1118 73.6406 29.8829H73.556C73.4963 30.1118 73.4416 30.3506 73.3869 30.6093C73.3272 30.8381 73.2725 31.0919 73.2177 31.3755C73.158 31.659 73.0884 31.9426 73.0038 32.2312L69.7202 43.1118C69.4665 44.1366 68.8098 44.6491 67.755 44.6491H64.8098C63.7849 44.6491 63.1332 44.1516 62.8446 43.1565L57.2128 24.8929H57.1879Z" fill="white"/>
<path d="M102.422 16.1465C102.422 14.9525 103.004 14.3555 104.173 14.3555H112.75C115.084 14.3555 117.203 14.6988 119.108 15.3803C121.014 16.0619 122.636 17.047 123.974 18.3256C125.312 19.6042 126.347 21.1863 127.089 23.0619C127.83 24.9376 128.198 27.0719 128.198 29.4649C128.198 31.858 127.83 33.9873 127.089 35.8679C126.347 37.7435 125.312 39.3405 123.974 40.649C122.636 41.9575 121.014 42.9525 119.108 43.6341C117.203 44.3157 115.084 44.6589 112.75 44.6589H104.173C103.009 44.6589 102.422 44.0619 102.422 42.8679V16.1465ZM112.447 39.9575C115.516 39.9575 117.964 39.0669 119.785 37.2808C121.606 35.4948 122.516 32.8878 122.516 29.4599C122.516 27.7734 122.273 26.2808 121.79 24.9823C121.307 23.6838 120.621 22.5992 119.74 21.7236C118.86 20.853 117.8 20.1913 116.561 19.7336C115.322 19.2759 113.949 19.047 112.442 19.047H107.875V39.9575H112.442H112.447Z" fill="white"/>
<path d="M131.352 33.768C131.352 32.0914 131.62 30.5541 132.163 29.1611C132.705 27.768 133.456 26.5641 134.426 25.5541C135.391 24.5442 136.561 23.7631 137.924 23.2058C139.287 22.6536 140.784 22.375 142.406 22.375C143.944 22.375 145.317 22.6387 146.526 23.166C147.735 23.6934 148.745 24.4098 149.556 25.3203C150.366 26.2307 150.983 27.3252 151.411 28.6039C151.839 29.8825 152.053 31.2655 152.053 32.7432C152.053 33.2257 151.874 33.6536 151.521 34.0218C151.163 34.3899 150.715 34.574 150.177 34.574H136.909C136.993 35.569 137.227 36.4397 137.615 37.176C137.998 37.9173 138.481 38.5342 139.068 39.0317C139.65 39.5292 140.322 39.9073 141.073 40.1611C141.824 40.4148 142.615 40.5442 143.441 40.5442C144.436 40.5442 145.342 40.3899 146.153 40.0765C146.963 39.7631 147.625 39.4496 148.138 39.1362C148.68 38.8825 149.143 38.7929 149.526 38.8825C149.909 38.967 150.242 39.2506 150.531 39.7382L151.043 40.5939C151.585 41.6188 151.386 42.4148 150.446 42.982C149.735 43.4397 148.755 43.9123 147.501 44.4098C146.247 44.9073 144.769 45.1561 143.063 45.1561C141.272 45.1561 139.65 44.8476 138.197 44.2407C136.745 43.6287 135.516 42.8029 134.506 41.768C133.496 40.7282 132.72 39.5193 132.182 38.1412C131.64 36.7631 131.371 35.3053 131.371 33.768H131.352ZM146.67 31.2904C146.61 29.7531 146.177 28.569 145.366 27.7282C144.556 26.8874 143.526 26.4695 142.272 26.4695C140.879 26.4695 139.72 26.9123 138.794 27.7929C137.869 28.6735 137.282 29.8427 137.023 31.2904H146.665H146.67Z" fill="white"/>
<path d="M155.462 42.943C154.979 42.6595 154.706 42.3012 154.651 41.8784C154.591 41.4505 154.721 40.9978 155.034 40.5152L155.546 39.749C155.86 39.2963 156.208 39.0376 156.591 38.9828C156.974 38.9281 157.437 39.0425 157.979 39.3261C158.492 39.6097 159.153 39.9331 159.964 40.2863C160.775 40.6445 161.735 40.8187 162.845 40.8187C163.785 40.8187 164.522 40.6197 165.064 40.2217C165.601 39.8236 165.875 39.2814 165.875 38.5998C165.875 38.0027 165.611 37.5251 165.084 37.1719C164.556 36.8187 163.89 36.4903 163.079 36.1918C162.268 35.8933 161.402 35.5749 160.477 35.2316C159.551 34.8883 158.686 34.4654 157.875 33.953C157.064 33.4406 156.397 32.7888 155.87 31.9878C155.342 31.1918 155.079 30.1669 155.079 28.9132C155.079 27.8634 155.298 26.9231 155.74 26.0973C156.183 25.2714 156.78 24.5898 157.531 24.0475C158.283 23.5052 159.168 23.0923 160.178 22.8087C161.188 22.5251 162.263 22.3809 163.402 22.3809C164.855 22.3809 166.084 22.5649 167.094 22.9331C168.104 23.3013 168.895 23.6445 169.462 23.958C169.944 24.2117 170.228 24.555 170.318 24.9828C170.402 25.4107 170.332 25.8634 170.104 26.346L169.676 27.1122C169.422 27.6246 169.094 27.9231 168.696 28.0077C168.298 28.0923 167.825 28.0226 167.288 27.7938C166.805 27.5649 166.223 27.3311 165.536 27.0873C164.855 26.8435 164.059 26.7241 163.148 26.7241C162.238 26.7241 161.487 26.9082 160.974 27.2814C160.462 27.6495 160.208 28.1769 160.208 28.8585C160.208 29.4555 160.472 29.9381 160.999 30.3112C161.526 30.6794 162.193 31.0077 163.004 31.2913C163.815 31.5749 164.681 31.8833 165.606 32.2067C166.531 32.5351 167.397 32.953 168.208 33.4654C169.019 33.9779 169.686 34.6346 170.213 35.4306C170.74 36.2266 171.004 37.2366 171.004 38.4605C171.004 39.4256 170.81 40.3162 170.427 41.1271C170.044 41.9381 169.487 42.6396 168.765 43.2416C168.044 43.8435 167.163 44.3062 166.138 44.6495C165.114 44.9928 163.974 45.1619 162.725 45.1619C160.959 45.1619 159.477 44.9082 158.268 44.3958C157.059 43.8833 156.128 43.4008 155.472 42.943H155.462Z" fill="white"/>
<path fill-rule="evenodd" clip-rule="evenodd" d="M179.349 18.2311C185.747 11.8331 196.115 11.8331 202.508 18.2311C207.409 23.1316 208.697 30.5893 205.742 36.8331L201.712 32.8033C203.359 26.8431 199.857 20.6938 193.916 19.0669C187.976 17.4401 181.807 20.8829 180.14 26.8232C178.474 32.7635 181.996 38.9326 187.936 40.5993C190.076 41.1863 192.324 41.1266 194.409 40.45L198.364 44.4052C190.324 48.5097 180.444 45.3306 176.339 37.2908C173.105 30.9525 174.314 23.2709 179.349 18.2361V18.2311Z" fill="white" stroke="white" stroke-width="0.139778" stroke-miterlimit="10"/>
<path fill-rule="evenodd" clip-rule="evenodd" d="M193.579 33.2162L194.659 32.1366C195.3 31.4948 196.36 31.4948 197.042 32.1366L205.29 40.3854C205.932 41.0272 205.932 42.0869 205.29 42.7685L204.211 43.8481C203.569 44.4899 202.509 44.4899 201.828 43.8481L193.579 35.5993C192.937 34.9177 192.937 33.8978 193.579 33.2162Z" fill="white" stroke="white" stroke-width="0.139778" stroke-miterlimit="10"/>
<path d="M5.62199 54.5847C5.47771 54.7638 5.30358 54.8981 5.10457 54.9927C4.90557 55.0872 4.69164 55.132 4.45781 55.132C4.17423 55.132 3.90557 55.0623 3.65184 54.923C3.39811 54.7837 3.11452 54.5499 2.79612 54.2215C2.33343 54.2066 1.92049 54.0922 1.54736 53.8782C1.17423 53.6643 0.885669 53.3757 0.676714 53.0076C0.467759 52.6394 0.363281 52.2315 0.363281 51.7787C0.363281 51.326 0.472734 50.9031 0.686664 50.53C0.900595 50.1568 1.20408 49.8683 1.59214 49.6543C1.9802 49.4404 2.40806 49.3359 2.88567 49.3359C3.36328 49.3359 3.79114 49.4404 4.16925 49.6494C4.55234 49.8583 4.85084 50.1519 5.06975 50.525C5.28865 50.8981 5.39811 51.316 5.39811 51.7787C5.39811 52.1817 5.31353 52.5499 5.14935 52.8882C4.98517 53.2215 4.75134 53.5051 4.44786 53.729C4.14935 53.9529 3.80607 54.1021 3.41303 54.1767C3.76627 54.5449 4.11452 54.7339 4.45781 54.7339C4.80109 54.7339 5.1195 54.5897 5.36826 54.2961L5.61701 54.5897L5.62199 54.5847ZM1.12448 52.7936C1.2986 53.0971 1.54239 53.331 1.85084 53.5051C2.1593 53.6792 2.50258 53.7638 2.88069 53.7638C3.2588 53.7638 3.60209 53.6792 3.91054 53.5051C4.219 53.331 4.45781 53.0922 4.63194 52.7936C4.80607 52.4902 4.89064 52.1519 4.89064 51.7787C4.89064 51.4056 4.80607 51.0673 4.63194 50.7638C4.45781 50.4603 4.219 50.2265 3.91054 50.0524C3.60209 49.8782 3.26378 49.7936 2.88069 49.7936C2.49761 49.7936 2.1593 49.8782 1.85084 50.0524C1.54239 50.2265 1.2986 50.4653 1.12448 50.7638C0.950346 51.0673 0.860794 51.4056 0.860794 51.7787C0.860794 52.1519 0.950346 52.4902 1.12448 52.7936Z" fill="white"/>
<path d="M9.68593 50.5693V54.1763H9.21826V53.5196C9.08891 53.7385 8.91478 53.9076 8.6909 54.032C8.46702 54.1514 8.21329 54.2161 7.92473 54.2161C7.45209 54.2161 7.08394 54.0867 6.8103 53.8231C6.53667 53.5594 6.40234 53.1763 6.40234 52.6688V50.5793H6.88991V52.6241C6.88991 53.0022 6.98443 53.2907 7.16851 53.4897C7.35757 53.6838 7.62125 53.7833 7.96951 53.7833C8.34762 53.7833 8.64612 53.6688 8.87001 53.435C9.08891 53.2062 9.19836 52.8828 9.19836 52.4698V50.5793H9.68593V50.5693Z" fill="white"/>
<path d="M11.0459 49.679C10.9762 49.6093 10.9414 49.5297 10.9414 49.4302C10.9414 49.3307 10.9762 49.261 11.0459 49.1914C11.1155 49.1217 11.2001 49.0869 11.2996 49.0869C11.3991 49.0869 11.4837 49.1217 11.5533 49.1864C11.623 49.2511 11.6578 49.3307 11.6578 49.4252C11.6578 49.5247 11.623 49.6093 11.5533 49.679C11.4837 49.7486 11.3991 49.7834 11.2996 49.7834C11.2001 49.7834 11.1155 49.7486 11.0459 49.679ZM11.0509 50.5695H11.5384V54.1765H11.0509V50.5695Z" fill="white"/>
<path d="M13.4317 53.9769C13.1482 53.8226 12.9293 53.6037 12.7701 53.3202C12.6109 53.0366 12.5312 52.7231 12.5312 52.3699C12.5312 52.0167 12.6109 51.7032 12.7701 51.4246C12.9293 51.146 13.1482 50.9271 13.4317 50.7729C13.7153 50.6187 14.0337 50.5391 14.387 50.5391C14.6954 50.5391 14.974 50.5988 15.2178 50.7231C15.4616 50.8425 15.6556 51.0217 15.7949 51.2555L15.4317 51.5042C15.3123 51.3251 15.1631 51.1908 14.979 51.1013C14.7949 51.0117 14.5959 50.9669 14.382 50.9669C14.1233 50.9669 13.8845 51.0266 13.6805 51.1411C13.4765 51.2555 13.3123 51.4246 13.1929 51.6386C13.0785 51.8525 13.0188 52.0963 13.0188 52.3699C13.0188 52.6435 13.0785 52.8923 13.1929 53.1062C13.3074 53.3202 13.4715 53.4843 13.6805 53.5988C13.8895 53.7132 14.1233 53.7729 14.382 53.7729C14.5959 53.7729 14.7949 53.7281 14.979 53.6435C15.1631 53.559 15.3123 53.4246 15.4317 53.2455L15.7949 53.4943C15.6556 53.7281 15.4616 53.9072 15.2128 54.0266C14.9641 54.146 14.6905 54.2107 14.382 54.2107C14.0238 54.2107 13.7054 54.1311 13.4268 53.9769H13.4317Z" fill="white"/>
<path d="M18.0414 52.3704L17.1907 53.1515V54.1814H16.7031V49.0918H17.1907V52.5396L19.3449 50.5694H19.9469L18.4046 52.042L20.0912 54.1764H19.4942L18.0414 52.3654V52.3704Z" fill="white"/>
<path d="M22.6123 49.679C22.5426 49.6093 22.5078 49.5297 22.5078 49.4302C22.5078 49.3307 22.5426 49.261 22.6123 49.1914C22.6819 49.1217 22.7665 49.0869 22.866 49.0869C22.9655 49.0869 23.0501 49.1217 23.1198 49.1864C23.1894 49.2511 23.2242 49.3307 23.2242 49.4252C23.2242 49.5247 23.1894 49.6093 23.1198 49.679C23.0501 49.7486 22.9655 49.7834 22.866 49.7834C22.7665 49.7834 22.6819 49.7486 22.6123 49.679ZM22.6173 50.5695H23.1048V54.1765H22.6173V50.5695Z" fill="white"/>
<path d="M27.3842 50.9371C27.6528 51.2008 27.7872 51.5838 27.7872 52.0863V54.1759H27.2996V52.1311C27.2996 51.758 27.2051 51.4694 27.016 51.2754C26.827 51.0814 26.5633 50.9818 26.215 50.9818C25.827 50.9818 25.5185 51.0963 25.2946 51.3301C25.0707 51.5639 24.9563 51.8823 24.9563 52.2853V54.1759H24.4688V50.5689H24.9364V51.2356C25.0707 51.0167 25.2548 50.8475 25.4886 50.7231C25.7225 50.6037 25.9961 50.5391 26.3095 50.5391C26.7623 50.5391 27.1205 50.6684 27.3891 50.9321L27.3842 50.9371Z" fill="white"/>
<path d="M29.2323 54.0861C28.9637 54.0016 28.7547 53.8971 28.6055 53.7677L28.8244 53.3847C28.9736 53.5041 29.1627 53.5986 29.3915 53.6782C29.6204 53.7528 29.8592 53.7926 30.103 53.7926C30.4313 53.7926 30.6751 53.7429 30.8343 53.6384C30.9935 53.5339 31.0731 53.3896 31.0731 53.2006C31.0731 53.0662 31.0284 52.9618 30.9438 52.8871C30.8592 52.8125 30.7448 52.7528 30.6154 52.718C30.4861 52.6832 30.307 52.6434 30.0881 52.6036C29.7945 52.5488 29.5607 52.4941 29.3816 52.4344C29.2025 52.3797 29.0532 52.2802 28.9239 52.1458C28.7995 52.0065 28.7348 51.8175 28.7348 51.5787C28.7348 51.2752 28.8592 51.0314 29.1129 50.8374C29.3667 50.6434 29.7149 50.5488 30.1627 50.5488C30.3965 50.5488 30.6303 50.5787 30.8642 50.6434C31.098 50.708 31.2871 50.7876 31.4413 50.8871L31.2274 51.2802C30.9288 51.0762 30.5756 50.9717 30.1627 50.9717C29.8542 50.9717 29.6154 51.0264 29.4612 51.1359C29.307 51.2453 29.2224 51.3896 29.2224 51.5687C29.2224 51.708 29.2672 51.8175 29.3567 51.8971C29.4463 51.9817 29.5557 52.0414 29.69 52.0812C29.8244 52.121 30.0035 52.1608 30.2373 52.2006C30.5259 52.2553 30.7547 52.31 30.9289 52.3647C31.103 52.4195 31.2522 52.514 31.3766 52.6483C31.501 52.7827 31.5607 52.9618 31.5607 53.1956C31.5607 53.509 31.4313 53.7628 31.1677 53.9468C30.904 54.1309 30.5408 54.2254 30.0731 54.2254C29.7796 54.2254 29.501 54.1856 29.2323 54.1011V54.0861Z" fill="white"/>
<path d="M32.4521 49.679C32.3825 49.6093 32.3477 49.5297 32.3477 49.4302C32.3477 49.3307 32.3825 49.261 32.4521 49.1914C32.5218 49.1217 32.6064 49.0869 32.7059 49.0869C32.8054 49.0869 32.8899 49.1217 32.9596 49.1864C33.0292 49.2511 33.0641 49.3307 33.0641 49.4252C33.0641 49.5247 33.0292 49.6093 32.9596 49.679C32.8899 49.7486 32.8054 49.7834 32.7059 49.7834C32.6064 49.7834 32.5218 49.7486 32.4521 49.679ZM32.4571 50.5695H32.9447V54.1765H32.4571V50.5695Z" fill="white"/>
<path d="M37.6418 50.5687V53.7379C37.6418 54.3498 37.4926 54.8026 37.1941 55.1011C36.8956 55.3946 36.4428 55.5439 35.8408 55.5439C35.5075 55.5439 35.1891 55.4941 34.8906 55.3946C34.5921 55.2951 34.3483 55.1608 34.1592 54.9866L34.408 54.6185C34.5821 54.7727 34.7911 54.8971 35.0398 54.9817C35.2886 55.0662 35.5523 55.111 35.8259 55.111C36.2836 55.111 36.617 55.0065 36.8359 54.7926C37.0498 54.5787 37.1592 54.2503 37.1592 53.8026V53.3448C37.01 53.5737 36.811 53.7478 36.5672 53.8672C36.3234 53.9866 36.0498 54.0463 35.7563 54.0463C35.418 54.0463 35.1095 53.9717 34.8359 53.8225C34.5573 53.6732 34.3433 53.4643 34.1841 53.2006C34.0249 52.9319 33.9453 52.6284 33.9453 52.2901C33.9453 51.9518 34.0249 51.6483 34.1841 51.3846C34.3433 51.121 34.5573 50.912 34.8309 50.7677C35.1045 50.6235 35.413 50.5488 35.7563 50.5488C36.0647 50.5488 36.3383 50.6085 36.5871 50.7329C36.8359 50.8573 37.0349 51.0364 37.1841 51.2702V50.5787H37.6518L37.6418 50.5687ZM36.5025 53.4394C36.7115 53.3299 36.8757 53.1707 36.9951 52.9717C37.1145 52.7727 37.1692 52.5439 37.1692 52.2851C37.1692 52.0264 37.1095 51.8026 36.9951 51.6036C36.8806 51.4046 36.7165 51.2503 36.5075 51.1359C36.2985 51.0215 36.0647 50.9667 35.7961 50.9667C35.5274 50.9667 35.2985 51.0215 35.0946 51.1309C34.8906 51.2404 34.7264 51.3946 34.607 51.5986C34.4876 51.8026 34.4329 52.0264 34.4329 52.2851C34.4329 52.5439 34.4926 52.7677 34.607 52.9717C34.7214 53.1757 34.8856 53.3299 35.0946 53.4394C35.3035 53.5538 35.5374 53.6085 35.7961 53.6085C36.0548 53.6085 36.2936 53.5538 36.5025 53.4394Z" fill="white"/>
<path d="M41.9271 50.9377C42.1958 51.2013 42.3301 51.5844 42.3301 52.0869V54.1765H41.8426V52.1317C41.8426 51.7586 41.748 51.47 41.559 51.276C41.3699 51.0819 41.1062 50.9824 40.758 50.9824C40.3699 50.9824 40.0615 51.0969 39.8376 51.3307C39.6137 51.5645 39.4993 51.8829 39.4993 52.2859V54.1765H39.0117V49.0869H39.4993V51.2013C39.6336 50.9924 39.8127 50.8282 40.0465 50.7138C40.2804 50.5993 40.549 50.5446 40.8475 50.5446C41.3003 50.5446 41.6585 50.674 41.9271 50.9377Z" fill="white"/>
<path d="M45.5486 53.9583C45.4591 54.0429 45.3446 54.1026 45.2103 54.1474C45.076 54.1921 44.9367 54.212 44.7874 54.212C44.4491 54.212 44.1904 54.1225 44.0063 53.9384C43.8223 53.7543 43.7327 53.4956 43.7327 53.1623V50.9832H43.0859V50.5702H43.7327V49.7842H44.2203V50.5702H45.3198V50.9832H44.2203V53.1374C44.2203 53.3513 44.275 53.5155 44.3795 53.6299C44.4889 53.7444 44.6432 53.7991 44.8422 53.7991C44.9417 53.7991 45.0412 53.7842 45.1357 53.7494C45.2302 53.7145 45.3098 53.6697 45.3795 53.61L45.5486 53.9583Z" fill="white"/>
<path d="M46.5644 54.0861C46.2957 54.0016 46.0868 53.8971 45.9375 53.7677L46.1564 53.3847C46.3057 53.5041 46.4947 53.5986 46.7236 53.6782C46.9524 53.7528 47.1912 53.7926 47.435 53.7926C47.7634 53.7926 48.0071 53.7429 48.1664 53.6384C48.3256 53.5339 48.4052 53.3896 48.4052 53.2006C48.4052 53.0662 48.3604 52.9618 48.2758 52.8871C48.1912 52.8125 48.0768 52.7528 47.9475 52.718C47.8181 52.6832 47.639 52.6434 47.4201 52.6036C47.1266 52.5488 46.8927 52.4941 46.7136 52.4344C46.5345 52.3797 46.3853 52.2802 46.2559 52.1458C46.1315 52.0065 46.0669 51.8175 46.0669 51.5787C46.0669 51.2752 46.1912 51.0314 46.445 50.8374C46.6987 50.6434 47.047 50.5488 47.4947 50.5488C47.7285 50.5488 47.9624 50.5787 48.1962 50.6434C48.43 50.708 48.6191 50.7876 48.7733 50.8871L48.5594 51.2802C48.2609 51.0762 47.9076 50.9717 47.4947 50.9717C47.1863 50.9717 46.9474 51.0264 46.7932 51.1359C46.639 51.2453 46.5544 51.3896 46.5544 51.5687C46.5544 51.708 46.5992 51.8175 46.6887 51.8971C46.7783 51.9817 46.8877 52.0414 47.0221 52.0812C47.1564 52.121 47.3355 52.1608 47.5693 52.2006C47.8579 52.2553 48.0868 52.31 48.2609 52.3647C48.435 52.4195 48.5843 52.514 48.7086 52.6483C48.833 52.7827 48.8927 52.9618 48.8927 53.1956C48.8927 53.509 48.7634 53.7628 48.4997 53.9468C48.236 54.1309 47.8728 54.2254 47.4052 54.2254C47.1116 54.2254 46.833 54.1856 46.5644 54.1011V54.0861Z" fill="white"/>
<path d="M50.0985 53.5693C50.1681 53.639 50.2029 53.7285 50.2029 53.833C50.2029 53.8877 50.193 53.9474 50.1781 54.0121C50.1631 54.0768 50.1383 54.1514 50.1084 54.231L49.8198 55.1763H49.4915L49.7253 54.1813C49.6507 54.1564 49.591 54.1166 49.5462 54.0569C49.5014 53.9972 49.4766 53.9226 49.4766 53.833C49.4766 53.7285 49.5114 53.639 49.581 53.5693C49.6507 53.4997 49.7353 53.4648 49.8397 53.4648C49.9442 53.4648 50.0338 53.4997 50.0985 53.5693Z" fill="white"/>
<path d="M56.8968 52.1112C57.066 52.3152 57.1555 52.5789 57.1555 52.8973C57.1555 53.3102 57.0013 53.6237 56.6978 53.8475C56.3944 54.0714 55.9466 54.1809 55.3496 54.1809H53.1406V49.3799H55.2103C55.7476 49.3799 56.1605 49.4893 56.4541 49.7033C56.7476 49.9172 56.8968 50.2207 56.8968 50.6137C56.8968 50.8774 56.8322 51.1063 56.7028 51.2903C56.5735 51.4744 56.3944 51.6137 56.1655 51.7033C56.4789 51.7729 56.7227 51.9072 56.8968 52.1112ZM53.6481 49.7978V51.5391H55.1755C55.5635 51.5391 55.862 51.4645 56.071 51.3152C56.2799 51.166 56.3844 50.952 56.3844 50.6684C56.3844 50.3849 56.2799 50.1709 56.071 50.0217C55.862 49.8724 55.5635 49.7978 55.1755 49.7978H53.6481ZM56.3148 53.5391C56.5337 53.3948 56.6431 53.166 56.6431 52.8525C56.6431 52.2555 56.2103 51.952 55.3396 51.952H53.6481V53.753H55.3396C55.7675 53.753 56.0959 53.6784 56.3148 53.5341V53.5391Z" fill="white"/>
<path d="M61.3491 52.5241H58.3342C58.364 52.8973 58.5033 53.2008 58.767 53.4346C59.0257 53.6634 59.359 53.7828 59.757 53.7828C59.9809 53.7828 60.1849 53.743 60.374 53.6634C60.563 53.5838 60.7222 53.4644 60.8615 53.3102L61.1351 53.6236C60.9759 53.8177 60.7769 53.9619 60.5332 54.0615C60.2894 54.161 60.0307 54.2107 59.7421 54.2107C59.369 54.2107 59.0456 54.1311 58.757 53.9719C58.4685 53.8127 58.2496 53.5938 58.0904 53.3152C57.9312 53.0366 57.8516 52.7231 57.8516 52.3699C57.8516 52.0167 57.9262 51.7032 58.0804 51.4246C58.2346 51.146 58.4436 50.9271 58.7123 50.7729C58.9809 50.6187 59.2794 50.5391 59.6128 50.5391C59.9461 50.5391 60.2446 50.6187 60.5133 50.7729C60.7819 50.9271 60.9859 51.146 61.1351 51.4197C61.2844 51.6983 61.359 52.0117 61.359 52.3699V52.5192L61.3491 52.5241ZM58.7322 51.2953C58.4983 51.5192 58.364 51.8077 58.3292 52.161H60.8864C60.8565 51.8027 60.7222 51.5142 60.4834 51.2953C60.2496 51.0714 59.956 50.9619 59.6028 50.9619C59.2496 50.9619 58.966 51.0714 58.7272 51.2953H58.7322Z" fill="white"/>
<path d="M64.2478 53.9583C64.1583 54.0429 64.0439 54.1026 63.9095 54.1474C63.7752 54.1921 63.6359 54.212 63.4866 54.212C63.1483 54.212 62.8896 54.1225 62.7056 53.9384C62.5215 53.7543 62.4319 53.4956 62.4319 53.1623V50.9832H61.7852V50.5702H62.4319V49.7842H62.9195V50.5702H64.019V50.9832H62.9195V53.1374C62.9195 53.3513 62.9742 53.5155 63.0787 53.6299C63.1881 53.7444 63.3424 53.7991 63.5414 53.7991C63.6409 53.7991 63.7404 53.7842 63.8349 53.7494C63.9294 53.7145 64.009 53.6697 64.0787 53.61L64.2478 53.9583Z" fill="white"/>
<path d="M66.9353 53.9583C66.8458 54.0429 66.7314 54.1026 66.597 54.1474C66.4627 54.1921 66.3234 54.212 66.1741 54.212C65.8358 54.212 65.5771 54.1225 65.393 53.9384C65.209 53.7543 65.1194 53.4956 65.1194 53.1623V50.9832H64.4727V50.5702H65.1194V49.7842H65.607V50.5702H66.7065V50.9832H65.607V53.1374C65.607 53.3513 65.6617 53.5155 65.7662 53.6299C65.8756 53.7444 66.0299 53.7991 66.2289 53.7991C66.3284 53.7991 66.4279 53.7842 66.5224 53.7494C66.6169 53.7145 66.6965 53.6697 66.7662 53.61L66.9353 53.9583Z" fill="white"/>
<path d="M70.8295 52.5241H67.8146C67.8445 52.8973 67.9838 53.2008 68.2475 53.4346C68.5062 53.6634 68.8395 53.7828 69.2375 53.7828C69.4614 53.7828 69.6654 53.743 69.8544 53.6634C70.0435 53.5838 70.2027 53.4644 70.342 53.3102L70.6156 53.6236C70.4564 53.8177 70.2574 53.9619 70.0136 54.0615C69.7698 54.161 69.5111 54.2107 69.2226 54.2107C68.8494 54.2107 68.5261 54.1311 68.2375 53.9719C67.9489 53.8127 67.73 53.5938 67.5708 53.3152C67.4116 53.0366 67.332 52.7231 67.332 52.3699C67.332 52.0167 67.4067 51.7032 67.5609 51.4246C67.7151 51.146 67.9241 50.9271 68.1927 50.7729C68.4614 50.6187 68.7599 50.5391 69.0932 50.5391C69.4266 50.5391 69.7251 50.6187 69.9937 50.7729C70.2624 50.9271 70.4664 51.146 70.6156 51.4197C70.7649 51.6983 70.8395 52.0117 70.8395 52.3699V52.5192L70.8295 52.5241ZM68.2126 51.2953C67.9788 51.5192 67.8445 51.8077 67.8096 52.161H70.3669C70.337 51.8027 70.2027 51.5142 69.9639 51.2953C69.73 51.0714 69.4365 50.9619 69.0833 50.9619C68.73 50.9619 68.4465 51.0714 68.2077 51.2953H68.2126Z" fill="white"/>
<path d="M72.8072 50.728C73.036 50.6036 73.3146 50.5439 73.648 50.5439V51.0166H73.5335C73.1554 51.0116 72.8569 51.126 72.643 51.3599C72.429 51.5937 72.3196 51.9171 72.3196 52.34V54.1758H71.832V50.5688H72.2997V51.2753C72.4141 51.0315 72.5833 50.8524 72.8121 50.728H72.8072Z" fill="white"/>
<path d="M81.6732 50.5693L80.3101 54.1763H79.8523L78.713 51.2211L77.5737 54.1763H77.116L75.7578 50.5693H76.2255L77.3548 53.634L78.514 50.5693H78.9319L80.0862 53.634L81.2304 50.5693H81.6782H81.6732Z" fill="white"/>
<path d="M82.8369 53.9768C82.5583 53.8176 82.3394 53.5987 82.1802 53.3201C82.021 53.0415 81.9414 52.728 81.9414 52.3748C81.9414 52.0216 82.021 51.7081 82.1802 51.4295C82.3394 51.1509 82.5583 50.932 82.8369 50.7778C83.1155 50.6235 83.429 50.5439 83.7772 50.5439C84.1255 50.5439 84.4389 50.6235 84.7175 50.7778C84.9961 50.932 85.215 51.1509 85.3742 51.4295C85.5334 51.7081 85.613 52.0216 85.613 52.3748C85.613 52.728 85.5334 53.0415 85.3742 53.3201C85.215 53.5987 84.9961 53.8176 84.7175 53.9768C84.4389 54.136 84.1255 54.2156 83.7772 54.2156C83.429 54.2156 83.1155 54.136 82.8369 53.9768ZM84.4688 53.6036C84.6728 53.4892 84.8319 53.3201 84.9464 53.1061C85.0608 52.8922 85.1155 52.6484 85.1155 52.3698C85.1155 52.0912 85.0558 51.8524 84.9464 51.6385C84.8319 51.4245 84.6728 51.2604 84.4688 51.141C84.2648 51.0216 84.0359 50.9668 83.7822 50.9668C83.5285 50.9668 83.2946 51.0265 83.0907 51.141C82.8867 51.2554 82.7275 51.4245 82.613 51.6385C82.4986 51.8524 82.4389 52.0962 82.4389 52.3698C82.4389 52.6434 82.4986 52.8872 82.613 53.1061C82.7275 53.3201 82.8917 53.4842 83.0907 53.6036C83.2897 53.723 83.5235 53.7778 83.7822 53.7778C84.0409 53.7778 84.2698 53.7181 84.4688 53.6036Z" fill="white"/>
<path d="M87.5767 50.728C87.8055 50.6036 88.0841 50.5439 88.4175 50.5439V51.0166H88.3031C87.9249 51.0116 87.6264 51.126 87.4125 51.3599C87.1986 51.5937 87.0891 51.9171 87.0891 52.34V54.1758H86.6016V50.5688H87.0692V51.2753C87.1837 51.0315 87.3528 50.8524 87.5817 50.728H87.5767Z" fill="white"/>
<path d="M90.6313 52.3704L89.7805 53.1515V54.1814H89.293V49.0918H89.7805V52.5396L91.9348 50.5694H92.5367L90.9945 52.042L92.681 54.1764H92.084L90.6313 52.3654V52.3704Z" fill="white"/>
<defs>
<linearGradient id="paint0_linear_502_4870" x1="92.4141" y1="30.28" x2="218.001" y2="30.28" gradientUnits="userSpaceOnUse">
<stop stop-color="#FDB838"/>
<stop offset="1" stop-color="#EF473E"/>
</linearGradient>
<clipPath id="clip0_502_4870">
<rect width="9.68889" height="9.68889" fill="white" transform="translate(208.312)"/>
</clipPath>
</defs>
</svg>
