<svg width="39" height="39" viewBox="0 0 39 39" fill="none" xmlns="http://www.w3.org/2000/svg">
<path d="M14.625 16.25C18.2149 16.25 21.125 13.3399 21.125 9.75C21.125 6.16015 18.2149 3.25 14.625 3.25C11.0351 3.25 8.125 6.16015 8.125 9.75C8.125 13.3399 11.0351 16.25 14.625 16.25Z" stroke="#83BF4F" stroke-width="2"/>
<path d="M24.375 14.625C27.0675 14.625 29.25 12.4424 29.25 9.75C29.25 7.05762 27.0675 4.875 24.375 4.875" stroke="#83BF4F" stroke-width="2" stroke-linecap="round"/>
<path d="M9.56987 33.4495C11.0927 33.8819 12.8092 34.125 14.625 34.125C20.9072 34.125 26 31.2148 26 27.625C26 24.0352 20.9072 21.125 14.625 21.125C8.34277 21.125 3.25 24.0352 3.25 27.625C3.25 28.1861 3.37443 28.7307 3.60836 29.25" stroke="#83BF4F" stroke-width="2" stroke-linecap="round"/>
<path d="M29.25 22.75C32.1006 23.3751 34.125 24.9582 34.125 26.8125C34.125 28.4851 32.4777 29.9372 30.0625 30.6644" stroke="#83BF4F" stroke-width="2" stroke-linecap="round"/>
</svg>
